<svg width="165" height="155" viewBox="0 0 165 155" fill="none" xmlns="http://www.w3.org/2000/svg">
<path d="M114.163 68.1604C133.695 76.23 145.279 99.3301 88.077 128.279C38.5098 153.363 52.5765 111.965 20.6035 99.0526C-11.3695 86.1402 35.7018 68.5179 58.7692 65.2407C74.9697 62.9391 42.5704 30.5938 91.2376 25.4484C139.905 20.3031 92.9543 58.9737 114.163 68.1604Z" stroke="#001B62"/>
<path d="M134.945 51.6143C155.789 55.1063 172.259 75.0257 123.005 116.044C80.3235 151.588 84.748 108.093 50.6921 102.667C16.6362 97.2404 58.5584 69.5282 80.3043 61.1701C95.5766 55.3002 56.747 31.0307 103.023 15.1209C149.299 -0.788884 112.215 47.4094 134.945 51.6143Z" stroke="#BEDCFF" stroke-width="3"/>
</svg>
