<svg width="170" height="156" viewBox="0 0 170 156" fill="none" xmlns="http://www.w3.org/2000/svg">
<path d="M52.3649 68.5897C32.2435 76.7074 20.3143 99.9557 79.2573 129.107C130.333 154.368 115.83 112.696 148.769 99.7069C181.708 86.718 133.205 68.9689 109.438 65.6646C92.7455 63.3439 126.119 30.7951 75.9749 25.6042C25.8311 20.4132 74.2147 59.3482 52.3649 68.5897Z" stroke="#001B62"/>
<path d="M30.9676 51.9465C9.49345 55.4591 -7.47203 75.5084 43.2768 116.804C87.2524 152.588 82.6887 108.805 117.773 103.347C152.858 97.8891 109.665 69.9882 87.261 61.5722C71.5263 55.6616 111.527 31.236 63.8501 15.2153C16.1735 -0.805456 54.3844 47.7165 30.9676 51.9465Z" stroke="#BEDCFF" stroke-width="3"/>
</svg>
