<svg width="87" height="35" viewBox="0 0 87 35" fill="none" xmlns="http://www.w3.org/2000/svg">
<path fill-rule="evenodd" clip-rule="evenodd" d="M11.9531 0.1875C7.5 0.1875 3.80469 0.125 0.867188 0C0.804688 0.125 0.773438 0.28125 0.773438 0.46875C0.773438 0.625 0.804688 0.765625 0.867188 0.890625C1.53906 0.984375 2.05469 1.07031 2.41406 1.14844C2.78906 1.21094 3.17188 1.32031 3.5625 1.47656C3.95312 1.61719 4.24219 1.78125 4.42969 1.96875C4.61719 2.15625 4.79688 2.41406 4.96875 2.74219C5.14062 3.07031 5.25781 3.46094 5.32031 3.91406C5.38281 4.35156 5.42188 4.89844 5.4375 5.55469C5.50433 8.29469 5.54734 10.9275 5.56653 13.4531H7.66134C7.68908 10.4099 7.74467 7.6208 7.82812 5.08594H8.08594L11.4042 13.4531H16.8518L11.9531 0.1875ZM25.4847 13.4531H27.4829L30.4453 5.64844H30.6328C30.7255 8.42864 30.7907 11.0302 30.8284 13.4531H35.8222C35.8475 9.64449 35.9224 6.27731 36.0469 3.35156C36.0625 3.02344 36.2031 2.73438 36.4688 2.48438C36.7344 2.21875 37.0391 2.01562 37.3828 1.875C37.7266 1.71875 38.1797 1.58594 38.7422 1.47656C39.3203 1.36719 39.7812 1.28906 40.125 1.24219C40.4688 1.19531 40.9219 1.14844 41.4844 1.10156C41.5469 0.820312 41.5781 0.625 41.5781 0.515625C41.5781 0.421875 41.5469 0.25 41.4844 0C37.9531 0.125 35.2188 0.1875 33.2812 0.1875H30.5859L25.4847 13.4531ZM35.9773 27.4531H30.7412C30.7106 28.6789 30.6745 29.9419 30.6328 31.2422C30.6172 31.6484 30.4375 32 30.0938 32.2969C29.75 32.5781 29.25 32.7969 28.5938 32.9531C27.9531 33.1094 27.4062 33.2266 26.9531 33.3047C26.5156 33.3672 25.9375 33.4297 25.2188 33.4922C25.1562 33.6484 25.125 33.8594 25.125 34.125C25.125 34.25 25.1562 34.4062 25.2188 34.5938C27.8438 34.5 30.5625 34.4531 33.375 34.4531C36.1719 34.4531 38.8906 34.5 41.5312 34.5938C41.5938 34.4062 41.625 34.25 41.625 34.125C41.625 33.9531 41.5938 33.7422 41.5312 33.4922C40.8125 33.4297 40.2266 33.3672 39.7734 33.3047C39.3359 33.2266 38.7891 33.1094 38.1328 32.9531C37.4922 32.7969 37 32.5781 36.6562 32.2969C36.3125 32 36.1328 31.6484 36.1172 31.2422C36.0635 29.9939 36.0168 28.7309 35.9773 27.4531ZM22.1689 27.4531H16.9563L19.5 33.8672H19.7344L22.1689 27.4531ZM7.77456 27.4531H5.41386C5.38007 28.5955 5.34108 29.7413 5.29688 30.8906C5.29688 32.2969 3.57031 33.1641 0.117188 33.4922C0.0390625 33.6484 0 33.8594 0 34.125C0 34.2812 0.0390625 34.4375 0.117188 34.5938C3.05469 34.5 5.14844 34.4531 6.39844 34.4531C8.35156 34.4531 10.5703 34.5 13.0547 34.5938C13.1328 34.4375 13.1719 34.2812 13.1719 34.125C13.1719 33.9688 13.1328 33.7578 13.0547 33.4922C9.63281 33.1797 7.90625 32.3125 7.875 30.8906C7.83687 29.7085 7.80339 28.5627 7.77456 27.4531ZM50.1795 27.4531H52.5402C52.569 28.5627 52.6025 29.7085 52.6406 30.8906C52.6719 32.3125 54.3984 33.1797 57.8203 33.4922C57.8984 33.7578 57.9375 33.9688 57.9375 34.125C57.9375 34.2812 57.8984 34.4375 57.8203 34.5938C55.3359 34.5 53.1172 34.4531 51.1641 34.4531C49.9141 34.4531 47.8203 34.5 44.8828 34.5938C44.8047 34.4375 44.7656 34.2812 44.7656 34.125C44.7656 33.8594 44.8047 33.6484 44.8828 33.4922C48.3359 33.1641 50.0625 32.2969 50.0625 30.8906C50.1067 29.7413 50.1457 28.5955 50.1795 27.4531ZM52.427 13.4531H50.3322C50.313 10.9275 50.27 8.29469 50.2031 5.55469C50.1875 4.89844 50.1484 4.35156 50.0859 3.91406C50.0234 3.46094 49.9062 3.07031 49.7344 2.74219C49.5625 2.41406 49.3828 2.15625 49.1953 1.96875C49.0078 1.78125 48.7188 1.61719 48.3281 1.47656C47.9375 1.32031 47.5547 1.21094 47.1797 1.14844C46.8203 1.07031 46.3047 0.984375 45.6328 0.890625C45.5703 0.765625 45.5391 0.625 45.5391 0.46875C45.5391 0.28125 45.5703 0.125 45.6328 0C48.5703 0.125 52.2656 0.1875 56.7188 0.1875L61.6174 13.4531H56.1698L52.8516 5.08594H52.5938C52.5103 7.6208 52.4547 10.4099 52.427 13.4531ZM61.7219 27.4531L64.2656 33.8672H64.5L66.9346 27.4531H61.7219ZM75.594 13.4531C75.5563 11.0302 75.4911 8.42864 75.3984 5.64844H75.2109L72.2485 13.4531H70.2504L75.3516 0.1875H78.0469C79.9844 0.1875 82.7188 0.125 86.25 0C86.3125 0.25 86.3438 0.421875 86.3438 0.515625C86.3438 0.625 86.3125 0.820312 86.25 1.10156C85.6875 1.14844 85.2344 1.19531 84.8906 1.24219C84.5469 1.28906 84.0859 1.36719 83.5078 1.47656C82.9453 1.58594 82.4922 1.71875 82.1484 1.875C81.8047 2.01562 81.5 2.21875 81.2344 2.48438C80.9688 2.73438 80.8281 3.02344 80.8125 3.35156C80.688 6.27731 80.6131 9.64449 80.5878 13.4531H75.594ZM75.5068 27.4531C75.4762 28.6789 75.4401 29.9419 75.3984 31.2422C75.3828 31.6484 75.2031 32 74.8594 32.2969C74.5156 32.5781 74.0156 32.7969 73.3594 32.9531C72.7188 33.1094 72.1719 33.2266 71.7188 33.3047C71.2812 33.3672 70.7031 33.4297 69.9844 33.4922C69.9219 33.6484 69.8906 33.8594 69.8906 34.125C69.8906 34.25 69.9219 34.4062 69.9844 34.5938C72.6094 34.5 75.3281 34.4531 78.1406 34.4531C80.9375 34.4531 83.6562 34.5 86.2969 34.5938C86.3594 34.4062 86.3906 34.25 86.3906 34.125C86.3906 33.9531 86.3594 33.7422 86.2969 33.4922C85.5781 33.4297 84.9922 33.3672 84.5391 33.3047C84.1016 33.2266 83.5547 33.1094 82.8984 32.9531C82.2578 32.7969 81.7656 32.5781 81.4219 32.2969C81.0781 32 80.8984 31.6484 80.8828 31.2422C80.8291 29.9939 80.7825 28.7309 80.7429 27.4531H75.5068Z" fill="white"/>
<path d="M13.05 17.2781H13.885L16.21 21.8031H16.14L18.465 17.2781H19.285V23.4531H18.695V17.8131H18.815L16.375 22.6231H15.98L13.55 17.8481H13.63V23.4531H13.05V17.2781ZM21.3798 23.4531V17.2781H25.0998V17.7731H21.9598V20.0831H24.9198V20.5781H21.9598V22.9481H25.0998V23.4531H21.3798ZM26.8879 23.4531V17.2781H29.1029C29.5429 17.2781 29.9079 17.3531 30.1979 17.5031C30.4879 17.6531 30.7046 17.8498 30.8479 18.0931C30.9912 18.3365 31.0629 18.5981 31.0629 18.8781C31.0629 19.2348 30.9646 19.5481 30.7679 19.8181C30.5712 20.0848 30.2696 20.2631 29.8629 20.3531C30.1262 20.3865 30.3562 20.4765 30.5529 20.6231C30.7496 20.7698 30.9012 20.9465 31.0079 21.1531C31.1179 21.3565 31.1729 21.5681 31.1729 21.7881C31.1729 22.0048 31.1362 22.2131 31.0629 22.4131C30.9929 22.6131 30.8762 22.7915 30.7129 22.9481C30.5529 23.1015 30.3396 23.2248 30.0729 23.3181C29.8096 23.4081 29.4846 23.4531 29.0979 23.4531H26.8879ZM27.4679 22.9481H29.0979C29.6246 22.9481 29.9996 22.8365 30.2229 22.6131C30.4496 22.3898 30.5629 22.1065 30.5629 21.7631C30.5629 21.4165 30.4379 21.1381 30.1879 20.9281C29.9379 20.7181 29.5746 20.6131 29.0979 20.6131H27.4679V22.9481ZM27.4679 17.7731V20.1231H29.0829C29.4929 20.1231 29.8262 20.0181 30.0829 19.8081C30.3396 19.5981 30.4679 19.2981 30.4679 18.9081C30.4679 18.5481 30.3429 18.2698 30.0929 18.0731C29.8462 17.8731 29.5129 17.7731 29.0929 17.7731H27.4679ZM32.9619 23.4531V17.2781H36.6819V17.7731H33.5419V20.0831H36.5019V20.5781H33.5419V22.9481H36.6819V23.4531H32.9619ZM39.0499 17.2781V22.9481H41.9149V23.4531H38.4699V17.2781H39.0499ZM45.3059 17.2781H46.1409L48.4659 21.8031H48.3959L50.7209 17.2781H51.5409V23.4531H50.9509V17.8131H51.0709L48.6309 22.6231H48.2359L45.8059 17.8481H45.8859V23.4531H45.3059V17.2781ZM52.8757 23.4531L55.0107 17.2781H55.6957L57.8007 23.4531H57.1907L56.6207 21.7381H54.0757L53.4807 23.4531H52.8757ZM54.2257 21.2681H56.4607L55.3407 17.9981L54.2257 21.2681ZM62.674 17.2781H63.484L59.609 21.2831V20.4381L62.674 17.2781ZM60.694 19.9131L63.649 23.4531H62.879L60.264 20.2931L60.694 19.9131ZM59.134 17.2781H59.724V23.4531H59.134V17.2781ZM64.9736 23.4531V17.2781H68.6936V17.7731H65.5536V20.0831H68.5136V20.5781H65.5536V22.9481H68.6936V23.4531H64.9736ZM70.4816 23.4531V17.2781H72.5666C73.2533 17.2781 73.7683 17.4448 74.1116 17.7781C74.4583 18.1081 74.6316 18.5398 74.6316 19.0731C74.6316 19.6031 74.4583 20.0348 74.1116 20.3681C73.7683 20.6981 73.2533 20.8631 72.5666 20.8631H71.0616V23.4531H70.4816ZM74.0066 23.4531L72.1666 20.6981H72.8116L74.7516 23.4531H74.0066ZM71.0616 20.4331H72.5366C73.0266 20.4331 73.3983 20.3098 73.6516 20.0631C73.9083 19.8131 74.0366 19.4898 74.0366 19.0931C74.0366 18.6865 73.91 18.3648 73.6566 18.1281C73.4066 17.8915 73.0433 17.7731 72.5666 17.7731H71.0616V20.4331Z" fill="white"/>
</svg>
