<svg width="209" height="269" viewBox="0 0 209 269" fill="none" xmlns="http://www.w3.org/2000/svg">
<path d="M29.8325 234.786C29.8325 234.786 51.5325 257.205 60.2689 268L76.3326 268C68.7235 254.437 50.1235 229.803 43.3598 220.669C36.188 210.984 33.2143 189.116 50.1235 179.982C76.3326 165.824 86.9854 152.082 85.6326 110.232C85.6326 92.9474 91.5508 70.9279 94.9327 62.0707C105.078 35.4994 146.505 81.9994 152.424 91.1333C161.289 104.815 195.318 162.161 208 191.5L208 147.5C208 133.157 184.551 100.267 182.86 96.9459C181.507 94.2887 157.388 58.4413 153.269 49.6154C147.217 36.6454 128.92 8.26341 105.924 2.28483C77.1781 -5.18841 62.8053 21.3831 62.8053 44.6332L62.8053 104.419C62.8054 118.753 49.278 148.428 27.2961 161.714C5.31425 175 0.24146 187.455 1.08694 199.08C1.76042 208.34 29.8325 234.786 29.8325 234.786Z" fill="#496CAD" stroke="#496CAD"/>
<path d="M94.2295 234.681C92.567 248.074 100.256 261.524 104.966 268.5L203.663 268.5C204.217 257.618 204.284 233.007 202.289 219.613C199.796 202.872 151.584 134.23 133.297 120.837C115.01 107.443 106.698 155.995 106.698 155.995C106.698 155.995 95.8597 221.548 94.2295 234.681Z" fill="#0B2149" stroke="#0B2149"/>
<path d="M78.2732 227.521C76.2948 243.317 85.4447 260.273 91.05 268.5L207.998 268.5L207.998 209.835C207.998 189.869 146.526 109.052 124.764 93.2559C103.003 77.46 93.1108 134.72 93.1108 134.72C93.1108 134.72 80.2131 212.032 78.2732 227.521Z" stroke="#9CADCC"/>
</svg>
