<svg width="347" height="482" viewBox="0 0 347 482" fill="none" xmlns="http://www.w3.org/2000/svg">
<path d="M297.228 60.7113C297.228 60.7113 260.52 20.4062 245.742 1H218.569C231.441 25.3821 262.904 69.668 274.345 86.0886C286.477 103.5 291.507 142.814 262.904 159.235C218.569 184.687 200.549 209.392 202.837 284.629C202.837 315.701 192.826 355.287 187.106 371.21C169.944 418.979 99.8664 335.383 89.8552 318.963C74.8593 294.366 21.4523 198.745 0 146V214.5C0 240.237 35.5093 302.542 38.3697 308.513C40.6579 313.29 81.4579 377.735 88.4251 393.602C98.6636 416.918 129.614 467.942 168.514 478.69C217.139 492.125 241.452 444.356 241.452 402.558V295.078C241.452 269.309 264.334 215.961 301.518 192.076C338.702 168.192 347.283 145.8 345.853 124.901C344.714 108.254 297.228 60.7113 297.228 60.7113Z" fill="#496CAD" stroke="#496CAD"/>
<path d="M184.607 63.3433C187.457 39.4044 174.156 14.4681 166.081 2H0C0.5 22 0 66.5 0 90.5C0 120.727 86.2805 242.885 117.631 266.823C148.981 290.762 163.231 203.984 163.231 203.984C163.231 203.984 181.812 86.8172 184.607 63.3433Z" fill="#0B2149" stroke="#0B2149"/>
<path d="M215.542 73.3771C218.858 45.5226 203.383 16.5075 193.988 2H0.257034C0.257034 24.5 0 77.5 0 104.713C0 139.886 101.139 282.286 137.615 310.14C174.092 337.995 190.672 237.022 190.672 237.022C190.672 237.022 212.291 100.691 215.542 73.3771Z" stroke="#9CADCC"/>
</svg>
